<svg width="21.000000" height="16.500000" viewBox="0 0 21 16.5" fill="none" xmlns="http://www.w3.org/2000/svg" xmlns:xlink="http://www.w3.org/1999/xlink">
	<desc>
			Created with Pixso.
	</desc>
	<defs/>
	<path id="Vector" d="M18.6892 2.7048L20.9392 7.9548C20.9792 8.04803 21 8.1485 21 8.25L21 13.5C21 13.6989 20.9209 13.8897 20.7803 14.0303C20.6396 14.171 20.449 14.25 20.25 14.25L18.6433 14.25C18.48 14.8933 18.1067 15.4638 17.5825 15.8712C17.0586 16.2787 16.4138 16.4999 15.75 16.4999C15.0862 16.4999 14.4414 16.2787 13.9175 15.8712C13.3933 15.4638 13.02 14.8933 12.8567 14.25L8.14331 14.25C7.96094 14.957 7.52686 15.5732 6.92236 15.9829C6.31812 16.3928 5.58496 16.5681 4.8606 16.4761C4.13623 16.3841 3.47046 16.0311 2.98779 15.4832C2.50488 14.9353 2.23877 14.2302 2.23877 13.5C2.23877 12.7698 2.50488 12.0647 2.98779 11.5168C3.47046 10.9689 4.13623 10.6159 4.8606 10.5239C5.58496 10.4319 6.31812 10.6072 6.92236 11.0171C7.52686 11.4268 7.96094 12.043 8.14331 12.75L12.8567 12.75C12.9563 12.3677 13.1309 12.0089 13.3701 11.6943C13.6091 11.3797 13.9082 11.1156 14.25 10.9171L14.25 1.5L3 1.5L3 0L15 0C15.199 0 15.3896 0.07901 15.5303 0.219666C15.6709 0.360321 15.75 0.551086 15.75 0.75L15.75 2.25L18 2.25C18.1467 2.24991 18.2903 2.29297 18.4128 2.37384C18.5354 2.45468 18.6316 2.56979 18.6892 2.7048ZM7.5 3.75L0 3.75L0 5.25L7.5 5.25L7.5 3.75ZM17.5056 3.75L15.75 3.75L15.75 7.5L19.113 7.5L17.5056 3.75ZM10.5 7.5L1.5 7.5L1.5 9L10.5 9L10.5 7.5ZM18.6433 12.75L19.5 12.75L19.5 9L15.75 9L15.75 10.5C16.4133 10.5019 17.0571 10.7238 17.5808 11.131C18.1045 11.5382 18.4783 12.1076 18.6433 12.75ZM4.41675 14.7472C4.66333 14.912 4.95337 15 5.25 15C5.64771 14.9995 6.02905 14.8414 6.31006 14.5602C6.59131 14.279 6.74951 13.8977 6.75 13.5C6.75 13.2033 6.66211 12.9133 6.49731 12.6667C6.33228 12.42 6.09814 12.2277 5.82397 12.1142C5.55005 12.0006 5.24829 11.9709 4.95728 12.0288C4.6665 12.0867 4.39917 12.2296 4.18945 12.4393C3.97949 12.6491 3.83667 12.9164 3.77881 13.2074C3.72095 13.4984 3.75073 13.7999 3.86426 14.074C3.97778 14.3481 4.16992 14.5824 4.41675 14.7472ZM14.9167 14.7472C15.1633 14.912 15.4534 15 15.75 15C16.1477 14.9995 16.5291 14.8414 16.8101 14.5602C17.0913 14.279 17.2495 13.8977 17.25 13.5C17.25 13.2033 17.1621 12.9133 16.9973 12.6667C16.8323 12.42 16.5981 12.2277 16.324 12.1142C16.05 12.0006 15.7483 11.9709 15.4573 12.0288C15.1665 12.0867 14.8992 12.2296 14.6895 12.4393C14.4795 12.6491 14.3367 12.9164 14.2788 13.2074C14.2209 13.4984 14.2507 13.7999 14.3643 14.074C14.4778 14.3481 14.6699 14.5824 14.9167 14.7472Z" fill="#2A254B" fill-opacity="1.000000" fill-rule="evenodd"/>
</svg>
