<svg width="18.000000" height="18.000000" viewBox="0 0 18 18" fill="none" xmlns="http://www.w3.org/2000/svg" xmlns:xlink="http://www.w3.org/1999/xlink">
	<desc>
			Created with Pixso.
	</desc>
	<defs/>
	<path id="Vector" d="M17.0024 0L0.997559 0C0.733643 0.00196838 0.480957 0.107681 0.294434 0.294327C0.107666 0.480972 0.00195312 0.733551 0 0.997498L0 17.0025C0.00195312 17.2664 0.107666 17.519 0.294434 17.7057C0.480957 17.8923 0.733643 17.998 0.997559 18L9.61499 18L9.61499 11.04L7.2749 11.04L7.2749 8.3175L9.61499 8.3175L9.61499 6.315C9.61499 3.99001 11.0325 2.7225 13.1174 2.7225C13.8149 2.7225 14.5125 2.7225 15.21 2.8275L15.21 5.25L13.7776 5.25C12.645 5.25 12.4275 5.78999 12.4275 6.5775L12.4275 8.31L15.1274 8.31L14.7749 11.0325L12.4275 11.0325L12.4275 18L17.0024 18C17.2664 17.998 17.519 17.8923 17.7056 17.7057C17.8923 17.519 17.998 17.2664 18 17.0025L18 0.997498C17.998 0.733551 17.8923 0.480972 17.7056 0.294327C17.519 0.107681 17.2664 0.00196838 17.0024 0Z" fill="#2A254B" fill-opacity="1.000000" fill-rule="nonzero"/>
</svg>
