<svg width="20.928467" height="21.000793" viewBox="0 0 20.9285 21.0008" fill="none" xmlns="http://www.w3.org/2000/svg" xmlns:xlink="http://www.w3.org/1999/xlink">
	<desc>
			Created with Pixso.
	</desc>
	<defs/>
	<path id="Vector" d="M10.4285 0C7.99414 0.016571 5.64136 0.878479 3.77222 2.43826C1.90332 3.99808 0.634277 6.15881 0.182373 8.55087C-0.269287 10.943 0.124023 13.4177 1.29517 15.5518C2.46655 17.6859 4.34302 19.3466 6.60352 20.25C6.45166 19.2558 6.45166 18.2442 6.60352 17.25L7.84106 12C7.64526 11.5245 7.5481 11.0142 7.55591 10.5C7.55591 9.04501 8.40356 7.95001 9.45361 7.95001C9.6438 7.94714 9.83228 7.98541 10.0063 8.06226C10.1804 8.13907 10.3357 8.25259 10.4619 8.39505C10.5879 8.53751 10.6816 8.70554 10.7368 8.8876C10.792 9.0697 10.8069 9.26154 10.781 9.45001C10.781 10.35 10.2109 11.7 9.91113 12.945C9.84644 13.1772 9.83887 13.4215 9.88867 13.6573C9.93848 13.8931 10.0444 14.1133 10.1975 14.2995C10.3506 14.4857 10.5461 14.6322 10.7678 14.7267C10.9895 14.8212 11.2307 14.861 11.4709 14.8425C13.3311 14.8425 14.771 12.87 14.771 10.035C14.7898 9.45892 14.6882 8.88525 14.4727 8.35062C14.2573 7.81598 13.9329 7.33209 13.52 6.92987C13.1072 6.52762 12.6152 6.21585 12.0752 6.0144C11.5349 5.81299 10.959 5.72635 10.3835 5.76001C9.76929 5.73361 9.15601 5.83215 8.58081 6.04965C8.00562 6.26718 7.48071 6.59912 7.03735 7.02542C6.59424 7.45172 6.24243 7.9635 6.00269 8.52979C5.76318 9.0961 5.64087 9.70511 5.64355 10.32C5.63525 11.1766 5.89771 12.0139 6.39355 12.7125C6.42969 12.7526 6.45532 12.8009 6.46826 12.8532C6.48145 12.9055 6.48145 12.9602 6.46851 13.0125C6.38599 13.3425 6.20605 14.0625 6.17603 14.205C6.146 14.3475 6.01855 14.4375 5.82349 14.3475C4.51099 13.7325 3.6936 11.82 3.6936 10.275C3.6936 6.9675 6.10107 3.92249 10.6311 3.92249C14.2686 3.92249 17.1035 6.51749 17.1035 9.98999C17.1035 13.605 14.8535 16.515 11.6511 16.515C11.1816 16.5313 10.7153 16.4301 10.2949 16.2206C9.87451 16.011 9.51318 15.6997 9.24341 15.315L8.59106 17.8125C8.27832 18.7831 7.8396 19.7085 7.28613 20.565C8.30591 20.8664 9.36523 21.013 10.4285 21C13.2134 21 15.884 19.8937 17.853 17.9246C19.8223 15.9555 20.9285 13.2848 20.9285 10.5C20.9285 7.71524 19.8223 5.04453 17.853 3.07538C15.884 1.10623 13.2134 0 10.4285 0Z" fill="#2A254B" fill-opacity="1.000000" fill-rule="nonzero"/>
</svg>
