<svg width="21.000000" height="15.000000" viewBox="0 0 21 15" fill="none" xmlns="http://www.w3.org/2000/svg" xmlns:xlink="http://www.w3.org/1999/xlink">
	<desc>
			Created with Pixso.
	</desc>
	<defs/>
	<path id="Vector" d="M1.5 0L19.5 0C19.8977 0 20.2793 0.158035 20.5605 0.439346C20.842 0.720642 21 1.10217 21 1.5L21 13.5C21 13.8978 20.842 14.2794 20.5605 14.5607C20.2793 14.842 19.8977 15 19.5 15L1.5 15C1.10229 15 0.720703 14.842 0.439453 14.5607C0.157959 14.2794 0 13.8978 0 13.5L0 1.5C0 1.10217 0.157959 0.720642 0.439453 0.439346C0.720703 0.158035 1.10229 0 1.5 0ZM19.5 3.75L19.5 1.5L1.5 1.5L1.5 3.75L19.5 3.75ZM1.5 5.25L1.5 13.5L19.5 13.5L19.5 5.25L1.5 5.25ZM3 10.5L10.5 10.5L10.5 12L3 12L3 10.5Z" fill="#2A254B" fill-opacity="1.000000" fill-rule="evenodd"/>
</svg>
