<svg width="16.500000" height="13.407806" viewBox="0 0 16.5 13.4078" fill="none" xmlns="http://www.w3.org/2000/svg" xmlns:xlink="http://www.w3.org/1999/xlink">
	<desc>
			Created with Pixso.
	</desc>
	<defs/>
	<g opacity="0.100000">
		<path id="Vector" d="M5.18994 13.4076C6.45679 13.4156 7.71265 13.1719 8.88477 12.6908C10.0566 12.2097 11.1213 11.5006 12.0171 10.6048C12.9131 9.70901 13.6221 8.64423 14.1033 7.47226C14.5842 6.30032 14.8279 5.04449 14.8201 3.77762C14.8201 3.62762 14.8201 3.48514 14.8201 3.33511C15.4768 2.854 16.0452 2.26276 16.5 1.58763C15.8816 1.85806 15.2273 2.03745 14.5576 2.12012C15.2676 1.69696 15.8005 1.03088 16.0576 0.245132C15.3958 0.642212 14.6699 0.921356 13.9126 1.07013C13.4023 0.526657 12.7275 0.166412 11.9922 0.045166C11.2566 -0.0760803 10.502 0.0484009 9.84424 0.399368C9.18677 0.750336 8.66333 1.30821 8.35474 1.98669C8.04614 2.66516 7.96973 3.42639 8.13745 4.15262C6.79199 4.08658 5.47559 3.73788 4.27368 3.12924C3.07202 2.52063 2.01196 1.66568 1.1626 0.620132C0.734131 1.36351 0.604248 2.24188 0.799316 3.07736C0.994385 3.91287 1.49951 4.64307 2.2124 5.12012C1.68652 5.09982 1.17261 4.95596 0.712402 4.70013L0.712402 4.73764C0.707764 5.5145 0.969482 6.2695 1.4541 6.87683C1.93848 7.48413 2.61646 7.90707 3.375 8.07513C2.88574 8.20673 2.37329 8.22723 1.875 8.13513C2.09448 8.79767 2.51367 9.37604 3.07495 9.79095C3.63623 10.2059 4.31226 10.437 5.01001 10.4526C3.81689 11.413 2.33398 11.9417 0.80249 11.9526C0.533936 11.9449 0.266113 11.9223 0 11.8851C1.55029 12.8728 3.35181 13.3935 5.18994 13.3851L5.18994 13.4076Z" fill="#2A254B" fill-opacity="1.000000" fill-rule="nonzero"/>
	</g>
</svg>
