<svg width="59.555664" height="18.275391" viewBox="0 0 59.5557 18.2754" fill="none" xmlns="http://www.w3.org/2000/svg" xmlns:xlink="http://www.w3.org/1999/xlink">
	<desc>
			Created with Pixso.
	</desc>
	<defs/>
	<path id="Avion" d="M2.21484 18L3.97266 13.0547L11.0273 13.0547L12.7852 18L15 18L8.58984 0.544922L6.41016 0.544922L0 18L2.21484 18ZM4.63477 11.1797L7.42969 3.30469L7.56445 3.30469L10.3594 11.1797L4.63477 11.1797ZM26.5206 4.91016L24.3409 4.91016L20.7257 15.3398L20.5909 15.3398L16.9757 4.91016L14.796 4.91016L19.6358 18L21.6808 18L26.5206 4.91016ZM29.1792 18L31.1889 18L31.1889 4.91016L29.1792 4.91016L29.1792 18ZM30.2045 2.72461C30.9897 2.72461 31.6342 2.11523 31.6342 1.36523C31.6342 0.615234 30.9897 0 30.2045 0C29.4194 0 28.769 0.615234 28.769 1.36523C28.769 2.11523 29.4194 2.72461 30.2045 2.72461ZM40.1926 18.2754C43.7376 18.2754 46.1223 15.5801 46.1223 11.5254C46.1223 7.42969 43.7376 4.74023 40.1926 4.74023C36.6477 4.74023 34.2571 7.42969 34.2571 11.5254C34.2571 15.5801 36.6477 18.2754 40.1926 18.2754ZM40.1926 16.4648C37.4973 16.4648 36.2727 14.1504 36.2727 11.5254C36.2727 8.90039 37.4973 6.54492 40.1926 6.54492C42.8821 6.54492 44.1126 8.90039 44.1126 11.5254C44.1126 14.1504 42.8821 16.4648 40.1926 16.4648ZM51.2003 10.125C51.2003 7.83984 52.6183 6.54492 54.546 6.54492C56.4093 6.54492 57.546 7.76367 57.546 9.82031L57.546 18L59.5558 18L59.5558 9.67969C59.5558 6.33984 57.7745 4.74023 55.1261 4.74023C53.1456 4.74023 51.921 5.625 51.3058 6.95508L51.1358 6.95508L51.1358 4.91016L49.1905 4.91016L49.1905 18L51.2003 18L51.2003 10.125Z" fill="#22202E" fill-opacity="1.000000" fill-rule="evenodd"/>
</svg>
