<svg width="21.000000" height="21.000000" viewBox="0 0 21 21" fill="none" xmlns="http://www.w3.org/2000/svg" xmlns:xlink="http://www.w3.org/1999/xlink">
	<desc>
			Created with Pixso.
	</desc>
	<defs/>
	<path id="Vector" d="M4.6665 1.76956C6.39331 0.615814 8.42334 0 10.5 0C13.2847 0 15.9556 1.10623 17.9246 3.07538C19.8938 5.04453 21 7.71524 21 10.5C21 12.5767 20.3843 14.6068 19.2305 16.3335C18.0767 18.0602 16.4368 19.406 14.5181 20.2007C12.5996 20.9955 10.4883 21.2034 8.45166 20.7982C6.41479 20.3931 4.54395 19.3931 3.07544 17.9246C1.60693 16.4562 0.606934 14.5852 0.20166 12.5485C-0.203369 10.5117 0.00463867 8.40045 0.799316 6.48181C1.59399 4.5632 2.9397 2.92331 4.6665 1.76956ZM5.49976 17.9832C6.97998 18.9722 8.71997 19.5 10.5 19.5C12.887 19.5 15.176 18.5518 16.864 16.864C18.5518 15.1761 19.5 12.887 19.5 10.5C19.5 8.71997 18.9722 6.97992 17.9832 5.49988C16.9944 4.01984 15.5886 2.86627 13.9441 2.18509C12.2996 1.50391 10.49 1.32565 8.74414 1.67294C6.99829 2.0202 5.39478 2.87738 4.13599 4.13605C2.87744 5.39471 2.02026 6.99835 1.67285 8.7442C1.32568 10.49 1.50391 12.2996 2.18506 13.9442C2.86621 15.5887 4.01978 16.9943 5.49976 17.9832ZM5.25 10.8098L9 14.5605L15.75 7.81125L14.6887 6.75L9 12.4395L6.30981 9.75L5.25 10.8098Z" fill="#2A254B" fill-opacity="1.000000" fill-rule="evenodd"/>
</svg>
