<svg width="18.000000" height="18.000000" viewBox="0 0 18 18" fill="none" xmlns="http://www.w3.org/2000/svg" xmlns:xlink="http://www.w3.org/1999/xlink">
	<desc>
			Created with Pixso.
	</desc>
	<defs/>
	<path id="Vector" d="M5.28931 0.0541534C6.24927 0.0103455 6.55566 0 9 0C11.4443 0 11.7507 0.0103455 12.7102 0.0545197C13.457 0.0694733 14.1956 0.210938 14.895 0.47287C15.4929 0.704071 16.0359 1.05763 16.4893 1.51089C16.9426 1.96414 17.2961 2.50713 17.5276 3.105C17.7893 3.80421 17.9309 4.54279 17.9458 5.28931C17.9897 6.24922 18 6.55576 18 9C18 11.4442 17.9897 11.7508 17.9463 12.7103C17.9312 13.457 17.7898 14.1957 17.5278 14.895C17.2966 15.493 16.9431 16.036 16.4897 16.4893C16.0364 16.9427 15.4934 17.2963 14.8953 17.5275C14.196 17.7894 13.4573 17.9309 12.7107 17.9458C11.7507 17.9897 11.4443 18 9 18C6.55566 18 6.24927 17.9897 5.28979 17.9462C4.54297 17.9313 3.80444 17.7898 3.10498 17.5279C2.50708 17.2966 1.96411 16.943 1.51074 16.4897C1.05737 16.0364 0.703613 15.4933 0.472412 14.8954C0.210449 14.196 0.0690918 13.4573 0.0541992 12.7107C0.0102539 11.7508 0 11.4442 0 9C0 6.55576 0.0102539 6.24922 0.0541992 5.28967C0.0690918 4.54303 0.210449 3.80434 0.472412 3.105C0.703613 2.50705 1.05737 1.964 1.51074 1.51068C1.96411 1.05734 2.50708 0.703735 3.10498 0.472504C3.8042 0.210587 4.54272 0.0691376 5.28931 0.0541534ZM12.6367 1.67415C11.6877 1.6308 11.4031 1.62164 9 1.62164C6.59692 1.62164 6.31226 1.6308 5.36328 1.67407C4.79248 1.68086 4.22729 1.78569 3.69214 1.98398C3.30396 2.13374 2.95142 2.3631 2.65723 2.65729C2.36304 2.95146 2.13379 3.30396 1.98389 3.69209C1.78564 4.22731 1.68091 4.7926 1.67407 5.36333C1.63062 6.3123 1.62158 6.597 1.62158 9.00008C1.62158 11.4032 1.63086 11.6879 1.67407 12.6368C1.68091 13.2075 1.78564 13.7728 1.98389 14.308C2.13379 14.6962 2.36304 15.0487 2.65723 15.3428C2.95142 15.637 3.30396 15.8663 3.69214 16.0161C4.22729 16.2144 4.79248 16.3192 5.36328 16.326C6.31226 16.3694 6.59668 16.3785 9 16.3785C11.4033 16.3785 11.6877 16.3693 12.6367 16.326C13.2075 16.3192 13.7727 16.2144 14.3079 16.0161C14.696 15.8663 15.0486 15.637 15.3428 15.3428C15.637 15.0487 15.8662 14.6962 16.0161 14.308C16.2144 13.7728 16.3191 13.2075 16.3259 12.6368C16.3694 11.6879 16.3784 11.4032 16.3784 9.00008C16.3784 6.597 16.3691 6.3123 16.3259 5.36333C16.3191 4.7926 16.2144 4.22731 16.0161 3.69209C15.8662 3.30397 15.637 2.95149 15.3428 2.65732C15.0486 2.36316 14.696 2.13382 14.3079 1.98405C13.7727 1.78577 13.2075 1.68094 12.6367 1.67415ZM13.8042 5.2758C14.4006 5.2758 14.8843 4.79227 14.8843 4.1958C14.8843 3.59933 14.4006 3.1158 13.8042 3.1158C13.2078 3.1158 12.7241 3.59933 12.7241 4.1958C12.7241 4.79227 13.2078 5.2758 13.8042 5.2758ZM9 4.37836C8.08594 4.37836 7.19238 4.6494 6.43237 5.15724C5.67236 5.66507 5.07983 6.38687 4.73022 7.23137C4.38037 8.07587 4.28882 9.00513 4.46704 9.90164C4.64551 10.7982 5.08569 11.6216 5.73193 12.268C6.37842 12.9144 7.2019 13.3545 8.09839 13.5329C8.99487 13.7112 9.92407 13.6196 10.7686 13.2699C11.613 12.92 12.335 12.3277 12.8428 11.5677C13.3506 10.8076 13.6216 9.91408 13.6216 9C13.6216 7.77426 13.1348 6.59872 12.2681 5.73199C11.4014 4.86526 10.2258 4.37836 9 4.37836ZM9 12C8.40674 12 7.82666 11.8241 7.33325 11.4944C6.83984 11.1648 6.45532 10.6962 6.22827 10.1481C6.00122 9.59987 5.94189 8.99667 6.05762 8.41473C6.17334 7.83278 6.45923 7.29823 6.87866 6.87868C7.29834 6.45912 7.83276 6.1734 8.41479 6.05765C8.99658 5.94189 9.59985 6.0013 10.1479 6.22836C10.6963 6.45543 11.1648 6.83994 11.4944 7.33328C11.824 7.82663 12 8.40666 12 9C12 9.79565 11.6838 10.5587 11.1213 11.1213C10.5586 11.6839 9.79565 12 9 12Z" fill="#FFFFFF" fill-opacity="1.000000" fill-rule="evenodd"/>
</svg>
