<svg width="18.000000" height="17.924988" viewBox="0 0 18 17.925" fill="none" xmlns="http://www.w3.org/2000/svg" xmlns:xlink="http://www.w3.org/1999/xlink">
	<desc>
			Created with Pixso.
	</desc>
	<defs/>
	<path id="Vector" d="M16.6499 0L1.3501 0C0.600098 0 0 0.600006 0 1.27499L0 16.65C0 17.325 0.600098 17.925 1.3501 17.925L16.6499 17.925C17.3999 17.925 18 17.325 18 16.65L18 1.27499C18 0.600006 17.3999 0 16.6499 0ZM5.32495 15.3L2.69995 15.3L2.69995 6.75L5.32495 6.75L5.32495 15.3ZM4.05005 5.54999C3.2251 5.54999 2.4751 4.875 2.4751 3.97501C2.4751 3.07501 3.1499 2.39999 4.05005 2.39999C4.875 2.39999 5.625 3.07501 5.625 3.97501C5.625 4.875 4.875 5.54999 4.05005 5.54999ZM15.375 15.225L12.75 15.225L12.75 11.025C12.75 10.05 12.75 8.70001 11.325 8.70001C9.8999 8.70001 9.75 9.82501 9.75 10.875L9.75 15.15L7.125 15.15L7.125 6.75L9.6001 6.75L9.6001 7.875L9.67505 7.875C10.05 7.20001 10.95 6.45001 12.2251 6.45001C14.925 6.45001 15.45 8.25 15.45 10.575L15.45 15.225L15.375 15.225Z" fill="#FFFFFF" fill-opacity="1.000000" fill-rule="nonzero"/>
</svg>
