<svg width="24.000000" height="24.000000" viewBox="0 0 24 24" fill="none" xmlns="http://www.w3.org/2000/svg" xmlns:xlink="http://www.w3.org/1999/xlink">
	<desc>
			Created with Pixso.
	</desc>
	<defs>
		<clipPath id="clip122_4296">
			<rect id="Property 1=Search" width="24.000000" height="24.000000" fill="white" fill-opacity="0"/>
		</clipPath>
	</defs>
	<rect id="Property 1=Search" width="24.000000" height="24.000000" fill="#FFFFFF" fill-opacity="1.000000"/>
	<g clip-path="url(#clip122_4296)">
		<path id="Vector" d="M21.75 20.6894L16.0859 15.0254C17.4468 13.3914 18.1255 11.2956 17.9807 9.17395C17.8359 7.05231 16.8787 5.06819 15.3083 3.63434C13.7378 2.20049 11.675 1.42728 9.54883 1.4756C7.42285 1.52391 5.39746 2.39001 3.89355 3.89372C2.38989 5.39744 1.52393 7.42299 1.47559 9.54901C1.42725 11.675 2.20044 13.7378 3.63428 15.3083C5.06812 16.8788 7.05225 17.836 9.17383 17.9808C11.2954 18.1257 13.3914 17.447 15.0254 16.0859L20.6895 21.75L21.75 20.6894ZM3 9.75001C3 8.41499 3.39575 7.10994 4.13745 5.99991C4.87915 4.88988 5.93335 4.02471 7.16675 3.51382C8.40015 3.00293 9.75732 2.86926 11.0669 3.12971C12.3762 3.39016 13.5789 4.03304 14.5229 4.97704C15.4668 5.92104 16.1099 7.12378 16.3701 8.43315C16.6306 9.74252 16.4971 11.0997 15.9861 12.3331C15.4753 13.5665 14.6101 14.6207 13.5 15.3624C12.3899 16.1041 11.085 16.5 9.75 16.5C7.96045 16.498 6.24463 15.7862 4.97925 14.5208C3.71362 13.2553 3.00195 11.5396 3 9.75001Z" fill="#2A254B" fill-opacity="1.000000" fill-rule="evenodd"/>
	</g>
</svg>
