<svg width="24.000000" height="24.000000" viewBox="0 0 24 24" fill="none" xmlns="http://www.w3.org/2000/svg" xmlns:xlink="http://www.w3.org/1999/xlink">
	<desc>
			Created with Pixso.
	</desc>
	<defs>
		<clipPath id="clip122_4298">
			<rect id="Property 1=Shopping--cart" width="24.000000" height="24.000000" fill="white" fill-opacity="0"/>
		</clipPath>
	</defs>
	<rect id="Property 1=Shopping--cart" width="24.000000" height="24.000000" fill="#FFFFFF" fill-opacity="1.000000"/>
	<g clip-path="url(#clip122_4298)">
		<path id="Vector" d="M4.36499 5.25003L21 5.25003C21.114 5.24723 21.2273 5.27048 21.3311 5.31802C21.4346 5.36555 21.5261 5.43613 21.5984 5.52436C21.6709 5.61259 21.7219 5.71616 21.7483 5.82718C21.7747 5.9382 21.7751 6.05375 21.75 6.16503L20.25 12.915C20.2119 13.0842 20.1165 13.235 19.9795 13.3416C19.8428 13.4483 19.6733 13.5043 19.5 13.5L6 13.5L6.61499 16.5L19.5 16.5L19.5 18L6 18C5.82446 18.0036 5.65332 17.9455 5.51636 17.8358C5.37939 17.7262 5.28516 17.572 5.25 17.4L2.38501 3.00003L0 3.00003L0 1.50003L3 1.50003C3.17554 1.49649 3.34668 1.5546 3.48364 1.66423C3.62061 1.77386 3.71484 1.92807 3.75 2.10003L4.36499 5.25003ZM5.71509 12L18.8999 12L20.0625 6.75003L4.66504 6.75003L5.71509 12ZM7.5 22.5C8.32837 22.5 9 21.8285 9 21C9 20.1716 8.32837 19.5 7.5 19.5C6.67163 19.5 6 20.1716 6 21C6 21.8285 6.67163 22.5 7.5 22.5ZM18 22.5C18.8284 22.5 19.5 21.8285 19.5 21C19.5 20.1716 18.8284 19.5 18 19.5C17.1716 19.5 16.5 20.1716 16.5 21C16.5 21.8285 17.1716 22.5 18 22.5Z" fill="#2A254B" fill-opacity="1.000000" fill-rule="evenodd"/>
	</g>
</svg>
