<svg width="19.374268" height="19.419296" viewBox="0 0 19.3743 19.4193" fill="none" xmlns="http://www.w3.org/2000/svg" xmlns:xlink="http://www.w3.org/1999/xlink">
	<desc>
			Created with Pixso.
	</desc>
	<defs/>
	<path id="Vector" d="M18.6196 11.1196C18.6953 10.6535 18.7329 10.1819 18.7322 9.70966C18.7322 7.31076 17.7793 5.01013 16.083 3.31387C14.3867 1.6176 12.0859 0.664642 9.68726 0.664642C9.21484 0.66391 8.74341 0.701538 8.2771 0.777145C7.23169 0.150894 6.00708 -0.108124 4.79761 0.041214C3.58813 0.190552 2.46313 0.739685 1.60132 1.60139C0.739746 2.46312 0.19043 3.58804 0.0412598 4.79753C-0.108154 6.007 0.150879 7.2317 0.7771 8.27715C0.692871 8.75012 0.647705 9.22925 0.64209 9.70966C0.64209 12.1085 1.59521 14.4092 3.29126 16.1054C4.98755 17.8017 7.28833 18.7547 9.68726 18.7547C10.1594 18.7554 10.6309 18.7178 11.0972 18.6422C12.1426 19.2684 13.3672 19.5274 14.5767 19.3781C15.7861 19.2287 16.9111 18.6796 17.7729 17.8179C18.6345 16.9562 19.1838 15.8313 19.333 14.6218C19.4824 13.4123 19.2234 12.1876 18.5972 11.1422L18.6196 11.1196ZM13.9846 13.8196C13.5613 14.4049 12.978 14.8555 12.3047 15.1171C11.4739 15.4431 10.5869 15.6012 9.69458 15.5822C8.65625 15.6256 7.62305 15.4118 6.68726 14.9597C6.1416 14.6663 5.67358 14.2473 5.32227 13.7372C5.00024 13.3014 4.81714 12.7786 4.79712 12.2372C4.79639 12.0967 4.82471 11.9575 4.88013 11.8285C4.93555 11.6994 5.01709 11.5832 5.11963 11.4872C5.34692 11.2938 5.63916 11.1945 5.93726 11.2097C6.18604 11.2049 6.42847 11.2901 6.61963 11.4496C6.82886 11.6454 6.99072 11.8866 7.09204 12.1546C7.22217 12.4678 7.38843 12.7648 7.58716 13.0396C7.78516 13.2934 8.04297 13.4943 8.33716 13.6246C8.73682 13.7961 9.17017 13.8756 9.60474 13.8571C10.2236 13.8871 10.8367 13.7247 11.3596 13.3922C11.5603 13.2746 11.7273 13.1072 11.8442 12.9061C11.9612 12.7051 12.0242 12.4772 12.0271 12.2446C12.0337 12.0818 12.0056 11.9194 11.9448 11.7682C11.884 11.6169 11.792 11.4803 11.6746 11.3671C11.4075 11.1211 11.0864 10.9413 10.7371 10.8421C10.3472 10.7146 9.82959 10.5871 9.17725 10.4446C8.42773 10.2702 7.69702 10.024 6.99463 9.70966C6.44214 9.48317 5.95483 9.12225 5.57715 8.65965C5.21899 8.18283 5.03369 7.59825 5.05225 7.00215C5.04614 6.39615 5.24121 5.80528 5.60718 5.32214C6.02515 4.80296 6.58154 4.41287 7.21216 4.19714C8.00952 3.93231 8.84741 3.81044 9.68726 3.83714C10.3442 3.82553 10.9993 3.91405 11.6296 4.09966C12.1245 4.24655 12.5891 4.48018 13.0022 4.78964C13.3271 5.03378 13.5979 5.34282 13.7971 5.69714C13.9592 5.98338 14.0469 6.30573 14.0522 6.63464C14.0513 6.77486 14.0222 6.91347 13.9668 7.04228C13.9114 7.17108 13.8308 7.28751 13.7297 7.38464C13.6277 7.49524 13.5034 7.58311 13.365 7.64255C13.2268 7.702 13.0776 7.73166 12.9272 7.72964C12.6858 7.74843 12.4468 7.67317 12.2598 7.51965C12.0627 7.33002 11.8982 7.10965 11.7722 6.86714C11.5864 6.48489 11.3174 6.14915 10.9846 5.88464C10.5481 5.61252 10.0342 5.4913 9.52222 5.53964C8.99634 5.51749 8.47559 5.64771 8.02222 5.91464C7.85742 6.00259 7.71826 6.13174 7.61841 6.28947C7.51855 6.44722 7.46118 6.62816 7.45215 6.81465C7.44629 7.01842 7.5127 7.2177 7.63965 7.37715C7.78931 7.55046 7.97314 7.69092 8.17969 7.78964C8.39966 7.90344 8.63086 7.99393 8.86963 8.05965C9.10962 8.12715 9.49976 8.22464 10.0471 8.35214C10.7371 8.50215 11.3521 8.66714 11.9146 8.84715C12.4177 9.00044 12.8972 9.22253 13.3396 9.50714C13.7256 9.75114 14.043 10.0892 14.2622 10.4897C14.4851 10.9463 14.5884 11.4521 14.5623 11.9597C14.5688 12.6248 14.3669 13.2753 13.9846 13.8196Z" fill="#FFFFFF" fill-opacity="1.000000" fill-rule="nonzero"/>
</svg>
