<svg width="16.500000" height="21.417152" viewBox="0 0 16.5 21.4172" fill="none" xmlns="http://www.w3.org/2000/svg" xmlns:xlink="http://www.w3.org/1999/xlink">
	<desc>
			Created with Pixso.
	</desc>
	<defs/>
	<path id="Vector" d="M14.25 0C12.5879 0.00274658 10.9651 0.50708 9.59424 1.44704C8.22314 2.38699 7.16797 3.71881 6.56616 5.2683C6.08423 4.56903 5.43945 3.99727 4.68774 3.60216C3.93579 3.20705 3.09937 3.00041 2.25 3L0 3L0 5.25C0.00146484 6.64191 0.555176 7.97636 1.53931 8.9606C2.52368 9.94482 3.85815 10.4985 5.25 10.5L6 10.5L6 17.287C4.27734 17.4554 2.66724 18.2191 1.44678 19.4465L2.50732 20.5071C3.13452 19.8798 3.89331 19.3995 4.72876 19.1006C5.56396 18.8018 6.45532 18.692 7.33813 18.779C8.22119 18.8661 9.07373 19.1478 9.83472 19.604C10.5957 20.0602 11.2458 20.6794 11.7388 21.4172L12.9849 20.5826C12.3701 19.6637 11.5593 18.8926 10.6111 18.3244C9.6626 17.7562 8.6001 17.4052 7.5 17.2965L7.5 10.5L8.25 10.5C10.4373 10.4975 12.5342 9.62753 14.0808 8.08089C15.6274 6.53426 16.4976 4.43727 16.5 2.25L16.5 0L14.25 0ZM5.25 9C4.25586 8.99887 3.30273 8.60342 2.59961 7.90041C1.89648 7.19739 1.50122 6.24422 1.5 5.25L1.5 4.5L2.25 4.5C3.24414 4.50107 4.19751 4.8965 4.90039 5.59953C5.60352 6.30257 5.99902 7.25577 6 8.25L6 9L5.25 9ZM15 2.25C14.998 4.0396 14.2861 5.75534 13.0208 7.02078C11.7554 8.28622 10.0396 8.99802 8.25 9L7.5 9L7.5 8.25C7.50195 6.4604 8.21387 4.74466 9.47925 3.47922C10.7446 2.21378 12.4604 1.50198 14.25 1.5L15 1.5L15 2.25Z" fill="#2A254B" fill-opacity="1.000000" fill-rule="nonzero"/>
</svg>
