<svg width="24.000000" height="24.000000" viewBox="0 0 24 24" fill="none" xmlns="http://www.w3.org/2000/svg" xmlns:xlink="http://www.w3.org/1999/xlink">
	<desc>
			Created with Pixso.
	</desc>
	<defs>
		<clipPath id="clip122_4300">
			<rect id="Property 1=User--avatar" width="24.000000" height="24.000000" fill="white" fill-opacity="0"/>
		</clipPath>
	</defs>
	<rect id="Property 1=User--avatar" width="24.000000" height="24.000000" fill="#FFFFFF" fill-opacity="1.000000"/>
	<g clip-path="url(#clip122_4300)">
		<path id="Vector" d="M6.1665 3.26957C7.89331 2.11581 9.92334 1.5 12 1.5C14.7839 1.50314 17.4526 2.61039 19.4211 4.57884C21.3896 6.5473 22.4968 9.21619 22.5 12C22.5 14.0767 21.8843 16.1068 20.7305 17.8335C19.5767 19.5602 17.9368 20.906 16.0181 21.7007C14.0996 22.4955 11.9883 22.7034 9.95166 22.2982C7.91479 21.8931 6.04395 20.8931 4.57544 19.4246C3.10693 17.9562 2.10693 16.0852 1.70166 14.0484C1.29663 12.0116 1.50464 9.90045 2.29932 7.98182C3.09399 6.0632 4.4397 4.42332 6.1665 3.26957ZM16.8782 16.0809C17.5786 16.772 17.9795 17.7105 17.9944 18.6943C19.3545 17.4799 20.3135 15.881 20.7449 14.1093C21.176 12.3377 21.0588 10.4769 20.4089 8.77324C19.759 7.06963 18.6069 5.6036 17.1055 4.56927C15.6038 3.53495 13.8235 2.98112 12 2.98112C10.1768 2.98112 8.39624 3.53495 6.89478 4.56927C5.39307 5.6036 4.24097 7.06963 3.59106 8.77324C2.94116 10.4769 2.82397 12.3377 3.25537 14.1093C3.68652 15.881 4.64551 17.4799 6.00562 18.6943C6.02051 17.7105 6.42139 16.772 7.12183 16.0809C7.82227 15.3899 8.76611 15.0017 9.75 15L14.25 15C15.2339 15.0017 16.1777 15.3899 16.8782 16.0809ZM9.9165 6.63199C10.5332 6.21993 11.2583 6 12 6C12.9946 6 13.9485 6.39509 14.6516 7.09835C15.355 7.80161 15.75 8.75544 15.75 9.75C15.75 10.4917 15.53 11.2167 15.1179 11.8334C14.7061 12.4501 14.1204 12.9307 13.4351 13.2145C12.7498 13.4984 11.9958 13.5726 11.2683 13.4279C10.541 13.2832 9.8728 12.9261 9.34839 12.4017C8.82397 11.8772 8.4668 11.209 8.32202 10.4816C8.17725 9.75416 8.25171 9.00016 8.5354 8.31494C8.81934 7.62971 9.30005 7.04404 9.9165 6.63199ZM10.75 11.6208C11.1199 11.868 11.5549 12 12 12C12.5964 11.9993 13.1685 11.7621 13.5903 11.3402C14.012 10.9184 14.2493 10.3465 14.25 9.75C14.25 9.30499 14.1182 8.86998 13.8708 8.49997C13.6235 8.12996 13.2722 7.84157 12.8611 7.67127C12.45 7.50097 11.9976 7.45642 11.561 7.54323C11.1245 7.63005 10.7236 7.84434 10.4089 8.15901C10.0942 8.47368 9.88013 8.87459 9.79321 9.31105C9.7063 9.7475 9.75098 10.1999 9.92139 10.611C10.0916 11.0222 10.3799 11.3736 10.75 11.6208ZM7.5 18.75L7.5 19.7824C8.86572 20.5798 10.4187 21 12 21C13.5813 21 15.1343 20.5798 16.5 19.7824L16.5 18.75C16.4993 18.1535 16.2622 17.5815 15.8403 17.1597C15.4185 16.7379 14.8464 16.5007 14.25 16.5L9.75 16.5C9.15356 16.5007 8.58154 16.7379 8.15967 17.1597C7.73804 17.5815 7.50073 18.1535 7.5 18.75Z" fill="#2A254B" fill-opacity="1.000000" fill-rule="evenodd"/>
	</g>
</svg>
